<svg width="45" height="45" viewBox="0 0 45 45" fill="none" xmlns="http://www.w3.org/2000/svg">
<path d="M22.4976 0.0118408C10.3478 0.0118408 0.496399 10.1088 0.496399 22.5729C0.496399 32.5421 6.80209 40.989 15.5436 43.9749C16.6437 44.1811 17.0464 43.4838 17.0464 42.8846C17.0464 42.3444 17.0267 40.9301 17.0169 39.0443C10.8978 40.4095 9.60134 36.0191 9.60134 36.0191C8.59951 33.4163 7.15568 32.7189 7.15568 32.7189C5.16182 31.3144 7.30301 31.3439 7.30301 31.3439C9.51295 31.501 10.6719 33.6717 10.6719 33.6717C12.6363 37.1192 15.8186 36.1271 17.0758 35.5476C17.2723 34.094 17.842 33.0922 18.4706 32.5323C13.5891 31.9626 8.45218 30.0277 8.45218 21.3844C8.45218 18.9191 9.30669 16.9056 10.7112 15.3341C10.4853 14.7644 9.72903 12.4661 10.9273 9.36234C10.9273 9.36234 12.7738 8.75337 16.9776 11.6705C18.7358 11.1696 20.6117 10.924 22.4877 10.9142C24.3539 10.924 26.2397 11.1696 27.9979 11.6705C32.2016 8.75337 34.0383 9.36234 34.0383 9.36234C35.2366 12.4661 34.4803 14.7644 34.2544 15.3341C35.659 16.9154 36.5135 18.9289 36.5135 21.3844C36.5135 30.0474 31.3668 31.9528 26.4656 32.5127C27.2514 33.21 27.9586 34.5851 27.9586 36.687C27.9586 39.7023 27.9291 42.1382 27.9291 42.8748C27.9291 43.474 28.322 44.1811 29.4417 43.9552C38.2029 40.9792 44.4987 32.5323 44.4987 22.5729C44.4987 10.1088 34.6473 0.0118408 22.4976 0.0118408Z" fill="#41B554"/>
</svg>
